<svg viewBox="0 0 190 34" fill="none" xmlns="http://www.w3.org/2000/svg"><g clip-path="url(#clip0_6407_1107)"><path d="M56.0505 30.8599V27.5043C55.3404 28.7045 54.4268 29.6317 53.3085 30.2868C52.1894 30.9419 50.8937 31.2689 49.4205 31.2689C47.9472 31.2689 46.5821 30.9824 45.3279 30.4093C44.0727 29.8363 42.995 29.046 42.0949 28.0359C41.1938 27.0268 40.491 25.8464 39.9864 24.4957C39.4818 23.145 39.2295 21.6925 39.2295 20.1373C39.2295 18.582 39.4683 17.1358 39.9458 15.7987C40.4225 14.4624 41.0848 13.2892 41.9309 12.2791C42.7761 11.2699 43.7861 10.4788 44.9593 9.90572C46.1325 9.33265 47.4012 9.04611 48.7654 9.04611C50.3747 9.04611 51.8074 9.42816 53.0626 10.1923C54.3177 10.9564 55.3134 11.952 56.0505 13.1793V0.983433H61.5343V30.8599H56.0505ZM56.0505 17.8864C55.5864 16.6583 54.8286 15.6554 53.7789 14.8778C52.7283 14.1002 51.6308 13.7118 50.4846 13.7118C49.6656 13.7118 48.915 13.8956 48.2338 14.2641C47.5508 14.6327 46.9651 15.1175 46.474 15.7176C45.9829 16.3177 45.6 17.0133 45.3279 17.8044C45.0548 18.5964 44.9188 19.4146 44.9188 20.2598C44.9188 21.16 45.0684 21.9925 45.3684 22.7566C45.6685 23.5207 46.0848 24.1893 46.6173 24.7615C47.1489 25.3346 47.7688 25.7851 48.4789 26.1122C49.188 26.4402 49.9656 26.6033 50.8117 26.6033C51.3568 26.6033 51.9029 26.5149 52.4489 26.3374C52.9941 26.1599 53.5059 25.9076 53.9834 25.5806C54.461 25.2526 54.8836 24.8714 55.2521 24.4344C55.6207 23.9983 55.8865 23.5207 56.0505 23.0017V17.8864Z" fill="#122E4F"></path><path d="M74.2372 31.2689C72.764 31.2689 71.407 30.9824 70.1653 30.4093C68.9236 29.8363 67.8532 29.046 66.953 28.0359C66.052 27.0268 65.3491 25.8464 64.8445 24.4957C64.3399 23.145 64.0876 21.6925 64.0876 20.1373C64.0876 18.582 64.3336 17.1295 64.8247 15.7788C65.3158 14.4281 65.9907 13.255 66.8503 12.2593C67.7099 11.2636 68.7263 10.4788 69.8995 9.90572C71.0718 9.33265 72.3404 9.04611 73.7056 9.04611C75.3148 9.04611 76.7475 9.42186 78.0027 10.1715C79.257 10.9221 80.24 11.9385 80.9492 13.2207V9.70118H86.4339V30.8599H80.9492V27.3809C80.24 28.609 79.3327 29.5641 78.228 30.2462C77.1233 30.9274 75.7924 31.2689 74.2372 31.2689ZM80.9492 17.927C80.4581 16.6727 79.7147 15.6554 78.719 14.8778C77.7225 14.1002 76.625 13.7118 75.4248 13.7118C74.6057 13.7118 73.8488 13.8956 73.1532 14.2641C72.4576 14.6327 71.8566 15.1238 71.352 15.7374C70.8474 16.3519 70.4581 17.0475 70.186 17.8251C69.913 18.6027 69.7769 19.4146 69.7769 20.2598C69.7769 21.1338 69.9202 21.9583 70.2067 22.7359C70.4924 23.5135 70.8952 24.1893 71.4133 24.7615C71.9314 25.3346 72.5522 25.7851 73.2758 26.1122C73.9984 26.4402 74.7832 26.6033 75.6293 26.6033C76.8566 26.6033 77.9135 26.2762 78.801 25.6211C79.6868 24.966 80.4031 24.0938 80.9492 23.0017V17.927Z" fill="#122E4F"></path><path d="M103.688 29.7552C102.951 30.0822 102.051 30.4093 100.987 30.7373C99.9228 31.0644 98.8037 31.2284 97.6305 31.2284C96.8664 31.2284 96.15 31.132 95.4824 30.9419C94.8129 30.7508 94.2272 30.4445 93.7226 30.021C93.2171 29.5984 92.8152 29.0523 92.5152 28.3837C92.2142 27.7152 92.0646 26.9042 92.0646 25.9491V13.6298H89.2407V9.41464H92.0646V2.45667H97.5494V9.41464H102.051V13.6298H97.5494V24.1073C97.5494 24.8714 97.7467 25.4102 98.1423 25.7238C98.5378 26.0374 99.0226 26.1942 99.5957 26.1942C100.168 26.1942 100.727 26.0987 101.273 25.9076C101.819 25.7175 102.256 25.5535 102.583 25.4166L103.688 29.7552Z" fill="#122E4F"></path><path d="M114.86 31.2689C113.387 31.2689 112.03 30.9824 110.788 30.4093C109.546 29.8363 108.476 29.046 107.576 28.0359C106.675 27.0268 105.972 25.8464 105.467 24.4957C104.963 23.145 104.71 21.6925 104.71 20.1373C104.71 18.582 104.956 17.1295 105.448 15.7788C105.939 14.4281 106.613 13.255 107.473 12.2593C108.333 11.2636 109.349 10.4788 110.522 9.90572C111.695 9.33265 112.963 9.04611 114.328 9.04611C115.938 9.04611 117.37 9.42186 118.626 10.1715C119.88 10.9221 120.863 11.9385 121.572 13.2207V9.70118H127.057V30.8599H121.572V27.3809C120.863 28.609 119.955 29.5641 118.851 30.2462C117.746 30.9274 116.415 31.2689 114.86 31.2689ZM121.572 17.927C121.081 16.6727 120.338 15.6554 119.342 14.8778C118.345 14.1002 117.248 13.7118 116.048 13.7118C115.229 13.7118 114.472 13.8956 113.776 14.2641C113.08 14.6327 112.479 15.1238 111.975 15.7374C111.47 16.3519 111.081 17.0475 110.809 17.8251C110.536 18.6027 110.4 19.4146 110.4 20.2598C110.4 21.1338 110.543 21.9583 110.83 22.7359C111.115 23.5135 111.518 24.1893 112.036 24.7615C112.554 25.3346 113.175 25.7851 113.899 26.1122C114.621 26.4402 115.406 26.6033 116.252 26.6033C117.479 26.6033 118.536 26.2762 119.424 25.6211C120.31 24.966 121.026 24.0938 121.572 23.0017V17.927Z" fill="#122E4F"></path><path d="M129.839 20.1373C129.839 18.637 130.097 17.2178 130.616 15.8806C131.135 14.5444 131.885 13.3712 132.867 12.3611C133.849 11.3519 135.036 10.5473 136.427 9.94627C137.82 9.34707 139.388 9.04611 141.135 9.04611C143.481 9.04611 145.479 9.55161 147.13 10.5608C148.781 11.57 150.015 12.8936 150.834 14.53L145.472 16.1672C145.008 15.3761 144.395 14.7696 143.63 14.3461C142.866 13.9235 142.02 13.7118 141.093 13.7118C140.302 13.7118 139.565 13.8695 138.884 14.1821C138.201 14.4966 137.608 14.9327 137.103 15.4923C136.598 16.0518 136.203 16.7267 135.917 17.5179C135.63 18.3099 135.487 19.1821 135.487 20.1373C135.487 21.0924 135.636 21.9655 135.936 22.7566C136.236 23.5478 136.639 24.2299 137.144 24.8029C137.648 25.376 138.242 25.8193 138.924 26.1329C139.606 26.4465 140.329 26.6033 141.093 26.6033C142.075 26.6033 142.983 26.3582 143.815 25.8671C144.647 25.376 145.227 24.7759 145.554 24.0659L150.916 25.7031C150.179 27.3403 148.965 28.6775 147.273 29.7137C145.581 30.7508 143.549 31.2689 141.175 31.2689C139.429 31.2689 137.86 30.9689 136.469 30.3688C135.078 29.7687 133.89 28.9568 132.908 27.9332C131.926 26.9105 131.169 25.7238 130.636 24.3731C130.105 23.0224 129.839 21.6105 129.839 20.1373Z" fill="#122E4F"></path><path d="M163.152 31.2689C161.406 31.2689 159.837 30.9689 158.446 30.3688C157.055 29.7687 155.874 28.9568 154.906 27.9332C153.937 26.9105 153.194 25.731 152.676 24.3939C152.157 23.0567 151.898 21.651 151.898 20.1778C151.898 18.6775 152.157 17.2593 152.676 15.9221C153.194 14.5849 153.937 13.4045 154.906 12.3818C155.874 11.3582 157.055 10.5473 158.446 9.94627C159.837 9.34707 161.406 9.04612 163.152 9.04612C164.898 9.04612 166.461 9.34707 167.839 9.94627C169.216 10.5473 170.389 11.3582 171.358 12.3818C172.327 13.4045 173.07 14.5849 173.588 15.9221C174.106 17.2593 174.366 18.6775 174.366 20.1778C174.366 21.651 174.106 23.0567 173.588 24.3939C173.07 25.731 172.333 26.9105 171.379 27.9332C170.424 28.9568 169.251 29.7687 167.859 30.3688C166.467 30.9689 164.898 31.2689 163.152 31.2689ZM157.546 20.1778C157.546 21.1338 157.689 21.9997 157.976 22.7774C158.262 23.5541 158.657 24.2299 159.162 24.8029C159.667 25.376 160.26 25.8193 160.943 26.1329C161.624 26.4465 162.361 26.6033 163.152 26.6033C163.943 26.6033 164.68 26.4465 165.362 26.1329C166.045 25.8193 166.637 25.376 167.143 24.8029C167.648 24.2299 168.043 23.5478 168.33 22.7566C168.616 21.9655 168.759 21.0924 168.759 20.1372C168.759 19.2101 168.616 18.3504 168.33 17.5584C168.043 16.7682 167.648 16.0852 167.143 15.5121C166.637 14.9399 166.045 14.4966 165.362 14.1821C164.68 13.8695 163.943 13.7118 163.152 13.7118C162.361 13.7118 161.624 13.8758 160.943 14.2029C160.26 14.53 159.667 14.9805 159.162 15.5536C158.657 16.1266 158.262 16.8087 157.976 17.5999C157.689 18.391 157.546 19.2506 157.546 20.1778Z" fill="#122E4F"></path><path d="M190 14.1623C188.335 14.1894 186.848 14.5101 185.539 15.1238C184.229 15.7374 183.288 16.6583 182.715 17.8864V30.8599H177.231V9.41465H182.264V13.9983C182.646 13.2613 183.097 12.5999 183.615 12.0133C184.133 11.4267 184.693 10.9149 185.293 10.4788C185.893 10.0427 186.5 9.70839 187.115 9.47592C187.728 9.24435 188.322 9.12811 188.894 9.12811H189.57C189.72 9.12811 189.863 9.14163 190 9.16866V14.1623Z" fill="#122E4F"></path><path d="M18.1626 33.9761C19.1174 33.9761 19.8914 33.2021 19.8914 32.2473C19.8914 31.2925 19.1174 30.5185 18.1626 30.5185C17.2078 30.5185 16.4338 31.2925 16.4338 32.2473C16.4338 33.2021 17.2078 33.9761 18.1626 33.9761Z" fill="#FFC517"></path><path d="M12.5603 33.4428C13.5151 33.4428 14.2891 32.6688 14.2891 31.7141C14.2891 30.7593 13.5151 29.9853 12.5603 29.9853C11.6055 29.9853 10.8315 30.7593 10.8315 31.7141C10.8315 32.6688 11.6055 33.4428 12.5603 33.4428Z" fill="#FFC517"></path><path d="M7.52932 30.9216C8.4841 30.9216 9.2581 30.1476 9.2581 29.1928C9.2581 28.2381 8.4841 27.4641 7.52932 27.4641C6.57454 27.4641 5.80054 28.2381 5.80054 29.1928C5.80054 30.1476 6.57454 30.9216 7.52932 30.9216Z" fill="#FFC517"></path><path d="M3.7488 26.7533C4.70358 26.7533 5.47758 25.9793 5.47758 25.0245C5.47758 24.0697 4.70358 23.2957 3.7488 23.2957C2.79402 23.2957 2.02002 24.0697 2.02002 25.0245C2.02002 25.9793 2.79402 26.7533 3.7488 26.7533Z" fill="#FFC517"></path><path d="M1.72902 21.5009C2.6838 21.5009 3.4578 20.7269 3.4578 19.7722C3.4578 18.8174 2.6838 18.0434 1.72902 18.0434C0.774245 18.0434 0.000244141 18.8174 0.000244141 19.7722C0.000244141 20.7269 0.774245 21.5009 1.72902 21.5009Z" fill="#FFC517"></path><path d="M1.74318 15.8736C2.69796 15.8736 3.47196 15.0996 3.47196 14.1449C3.47196 13.1901 2.69796 12.4161 1.74318 12.4161C0.788406 12.4161 0.0144043 13.1901 0.0144043 14.1449C0.0144043 15.0996 0.788406 15.8736 1.74318 15.8736Z" fill="#FFC517"></path><path d="M3.78933 10.6313C4.74411 10.6313 5.51811 9.85731 5.51811 8.90253C5.51811 7.94775 4.74411 7.17375 3.78933 7.17375C2.83455 7.17375 2.06055 7.94775 2.06055 8.90253C2.06055 9.85731 2.83455 10.6313 3.78933 10.6313Z" fill="#FFC517"></path><path d="M7.59084 6.48238C8.54562 6.48238 9.31962 5.70837 9.31962 4.75359C9.31962 3.79882 8.54562 3.02481 7.59084 3.02481C6.63606 3.02481 5.86206 3.79882 5.86206 4.75359C5.86206 5.70837 6.63606 6.48238 7.59084 6.48238Z" fill="#FFC517"></path><path d="M12.6348 3.98667C13.5896 3.98667 14.3636 3.21267 14.3636 2.25789C14.3636 1.30312 13.5896 0.529114 12.6348 0.529114C11.68 0.529114 10.906 1.30312 10.906 2.25789C10.906 3.21267 11.68 3.98667 12.6348 3.98667Z" fill="#FFC517"></path><path d="M18.2393 3.48151C19.1941 3.48151 19.9681 2.70751 19.9681 1.75273C19.9681 0.797954 19.1941 0.0239525 18.2393 0.0239525C17.2845 0.0239525 16.5105 0.797954 16.5105 1.75273C16.5105 2.70751 17.2845 3.48151 18.2393 3.48151Z" fill="#FFC517"></path><path d="M23.648 5.03522C24.6027 5.03522 25.3767 4.26122 25.3767 3.30644C25.3767 2.35166 24.6027 1.57766 23.648 1.57766C22.6932 1.57766 21.9192 2.35166 21.9192 3.30644C21.9192 4.26122 22.6932 5.03522 23.648 5.03522Z" fill="#FFC517"></path><path d="M28.1301 8.43756C29.0849 8.43756 29.8589 7.66356 29.8589 6.70878C29.8589 5.754 29.0849 4.98 28.1301 4.98C27.1754 4.98 26.4014 5.754 26.4014 6.70878C26.4014 7.66356 27.1754 8.43756 28.1301 8.43756Z" fill="#FFC517"></path><path d="M31.0803 13.2296C32.0351 13.2296 32.8091 12.4556 32.8091 11.5009C32.8091 10.5461 32.0351 9.77209 31.0803 9.77209C30.1256 9.77209 29.3516 10.5461 29.3516 11.5009C29.3516 12.4556 30.1256 13.2296 31.0803 13.2296Z" fill="#FFC517"></path><path d="M32.1009 18.7637C33.0556 18.7637 33.8296 17.9897 33.8296 17.0349C33.8296 16.0801 33.0556 15.3061 32.1009 15.3061C31.1461 15.3061 30.3721 16.0801 30.3721 17.0349C30.3721 17.9897 31.1461 18.7637 32.1009 18.7637Z" fill="#FFC517"></path><path d="M31.0528 24.2926C32.0075 24.2926 32.7815 23.5186 32.7815 22.5639C32.7815 21.6091 32.0075 20.8351 31.0528 20.8351C30.098 20.8351 29.324 21.6091 29.324 22.5639C29.324 23.5186 30.098 24.2926 31.0528 24.2926Z" fill="#FFC517"></path><path d="M28.0779 29.0696C29.0327 29.0696 29.8067 28.2956 29.8067 27.3408C29.8067 26.386 29.0327 25.612 28.0779 25.612C27.1231 25.612 26.3491 26.386 26.3491 27.3408C26.3491 28.2956 27.1231 29.0696 28.0779 29.0696Z" fill="#FFC517"></path><path d="M23.5791 32.4497C24.5339 32.4497 25.3079 31.6757 25.3079 30.7209C25.3079 29.7661 24.5339 28.9921 23.5791 28.9921C22.6243 28.9921 21.8503 29.7661 21.8503 30.7209C21.8503 31.6757 22.6243 32.4497 23.5791 32.4497Z" fill="#FFC517"></path><path d="M20.8679 27.5333C21.8227 27.5333 22.5967 26.7593 22.5967 25.8045C22.5967 24.8498 21.8227 24.0758 20.8679 24.0758C19.9132 24.0758 19.1392 24.8498 19.1392 25.8045C19.1392 26.7593 19.9132 27.5333 20.8679 27.5333Z" fill="#248DE3"></path><path d="M15.4585 28.3406C16.4133 28.3406 17.1873 27.5666 17.1873 26.6118C17.1873 25.6571 16.4133 24.8831 15.4585 24.8831C14.5037 24.8831 13.7297 25.6571 13.7297 26.6118C13.7297 27.5666 14.5037 28.3406 15.4585 28.3406Z" fill="#248DE3"></path><path d="M10.471 26.0955C11.4257 26.0955 12.1997 25.3215 12.1997 24.3667C12.1997 23.412 11.4257 22.638 10.471 22.638C9.51619 22.638 8.74219 23.412 8.74219 24.3667C8.74219 25.3215 9.51619 26.0955 10.471 26.0955Z" fill="#248DE3"></path><path d="M7.48903 21.5101C8.44381 21.5101 9.21781 20.7361 9.21781 19.7813C9.21781 18.8265 8.44381 18.0525 7.48903 18.0525C6.53426 18.0525 5.76025 18.8265 5.76025 19.7813C5.76025 20.7361 6.53426 21.5101 7.48903 21.5101Z" fill="#248DE3"></path><path d="M7.45974 16.0406C8.41452 16.0406 9.18852 15.2666 9.18852 14.3119C9.18852 13.3571 8.41452 12.5831 7.45974 12.5831C6.50496 12.5831 5.73096 13.3571 5.73096 14.3119C5.73096 15.2666 6.50496 16.0406 7.45974 16.0406Z" fill="#248DE3"></path><path d="M10.3919 11.4234C11.3466 11.4234 12.1206 10.6494 12.1206 9.69462C12.1206 8.73984 11.3466 7.96584 10.3919 7.96584C9.43709 7.96584 8.66309 8.73984 8.66309 9.69462C8.66309 10.6494 9.43709 11.4234 10.3919 11.4234Z" fill="#248DE3"></path><path d="M15.3548 9.12451C16.3095 9.12451 17.0835 8.35051 17.0835 7.39573C17.0835 6.44095 16.3095 5.66695 15.3548 5.66695C14.4 5.66695 13.626 6.44095 13.626 7.39573C13.626 8.35051 14.4 9.12451 15.3548 9.12451Z" fill="#248DE3"></path><path d="M20.773 9.87373C21.7277 9.87373 22.5017 9.09973 22.5017 8.14495C22.5017 7.19017 21.7277 6.41617 20.773 6.41617C19.8182 6.41617 19.0442 7.19017 19.0442 8.14495C19.0442 9.09973 19.8182 9.87373 20.773 9.87373Z" fill="#248DE3"></path><path d="M24.9258 13.4332C25.8806 13.4332 26.6546 12.6592 26.6546 11.7045C26.6546 10.7497 25.8806 9.97567 24.9258 9.97567C23.971 9.97567 23.197 10.7497 23.197 11.7045C23.197 12.6592 23.971 13.4332 24.9258 13.4332Z" fill="#248DE3"></path><path d="M26.4954 18.6728C27.4502 18.6728 28.2242 17.8988 28.2242 16.944C28.2242 15.9892 27.4502 15.2152 26.4954 15.2152C25.5406 15.2152 24.7666 15.9892 24.7666 16.944C24.7666 17.8988 25.5406 18.6728 26.4954 18.6728Z" fill="#248DE3"></path><path d="M24.9822 23.9292C25.937 23.9292 26.711 23.1552 26.711 22.2005C26.711 21.2457 25.937 20.4717 24.9822 20.4717C24.0274 20.4717 23.2534 21.2457 23.2534 22.2005C23.2534 23.1552 24.0274 23.9292 24.9822 23.9292Z" fill="#248DE3"></path><path d="M17.7818 22.986C18.7365 22.986 19.5105 22.212 19.5105 21.2572C19.5105 20.3024 18.7365 19.5284 17.7818 19.5284C16.827 19.5284 16.053 20.3024 16.053 21.2572C16.053 22.212 16.827 22.986 17.7818 22.986Z" fill="#58CDF7"></path><path d="M13.0432 20.9867C13.998 20.9867 14.772 20.2127 14.772 19.2579C14.772 18.3031 13.998 17.5291 13.0432 17.5291C12.0885 17.5291 11.3145 18.3031 11.3145 19.2579C11.3145 20.2127 12.0885 20.9867 13.0432 20.9867Z" fill="#58CDF7"></path><path d="M13.4798 15.8624C14.4345 15.8624 15.2085 15.0884 15.2085 14.1336C15.2085 13.1788 14.4345 12.4048 13.4798 12.4048C12.525 12.4048 11.751 13.1788 11.751 14.1336C11.751 15.0884 12.525 15.8624 13.4798 15.8624Z" fill="#58CDF7"></path><path d="M18.4885 14.6942C19.4433 14.6942 20.2173 13.9202 20.2173 12.9654C20.2173 12.0106 19.4433 11.2366 18.4885 11.2366C17.5338 11.2366 16.7598 12.0106 16.7598 12.9654C16.7598 13.9202 17.5338 14.6942 18.4885 14.6942Z" fill="#58CDF7"></path><path d="M21.1475 19.0968C22.1023 19.0968 22.8763 18.3228 22.8763 17.368C22.8763 16.4132 22.1023 15.6392 21.1475 15.6392C20.1927 15.6392 19.4187 16.4132 19.4187 17.368C19.4187 18.3228 20.1927 19.0968 21.1475 19.0968Z" fill="#58CDF7"></path></g><defs><clipPath id="clip0_6407_1107"><rect width="190" height="33.9523" fill="white" transform="translate(0 0.0238304)"></rect></clipPath></defs></svg>